<svg xmlns="http://www.w3.org/2000/svg" width="900" height="420" viewBox="0 0 900 420" role="img" aria-label="Qwen3-0.6B generation throughput (tokens/sec)">
<rect width="900" height="420" fill="#0f172a" rx="12"/>
<text x="82" y="32" font-family="Inter,Segoe UI,sans-serif" font-size="22" font-weight="700" fill="#f8fafc">Qwen3-0.6B generation throughput (tokens/sec)</text>
<line x1="82" y1="326.0" x2="670" y2="326.0" stroke="#1e293b" stroke-width="1"/>
<text x="72" y="330.0" text-anchor="end" font-family="Inter,Segoe UI,sans-serif" font-size="12" fill="#94a3b8">0.0</text>
<line x1="82" y1="271.6" x2="670" y2="271.6" stroke="#1e293b" stroke-width="1"/>
<text x="72" y="275.6" text-anchor="end" font-family="Inter,Segoe UI,sans-serif" font-size="12" fill="#94a3b8">19.6</text>
<line x1="82" y1="217.2" x2="670" y2="217.2" stroke="#1e293b" stroke-width="1"/>
<text x="72" y="221.2" text-anchor="end" font-family="Inter,Segoe UI,sans-serif" font-size="12" fill="#94a3b8">39.2</text>
<line x1="82" y1="162.8" x2="670" y2="162.8" stroke="#1e293b" stroke-width="1"/>
<text x="72" y="166.8" text-anchor="end" font-family="Inter,Segoe UI,sans-serif" font-size="12" fill="#94a3b8">58.9</text>
<line x1="82" y1="108.4" x2="670" y2="108.4" stroke="#1e293b" stroke-width="1"/>
<text x="72" y="112.4" text-anchor="end" font-family="Inter,Segoe UI,sans-serif" font-size="12" fill="#94a3b8">78.5</text>
<line x1="82" y1="54.0" x2="670" y2="54.0" stroke="#1e293b" stroke-width="1"/>
<text x="72" y="58.0" text-anchor="end" font-family="Inter,Segoe UI,sans-serif" font-size="12" fill="#94a3b8">98.1</text>
<line x1="82" y1="54" x2="82" y2="326" stroke="#475569"/>
<line x1="82" y1="326" x2="670" y2="326" stroke="#475569"/>
<text x="82.0" y="386" text-anchor="end" transform="rotate(-32 82.0 386)" font-family="Inter,Segoe UI,sans-serif" font-size="12" fill="#94a3b8">2026-05-18 08:58</text>
<text x="204.5" y="386" text-anchor="end" transform="rotate(-32 204.5 386)" font-family="Inter,Segoe UI,sans-serif" font-size="12" fill="#94a3b8">2026-05-20 09:39</text>
<text x="327.0" y="386" text-anchor="end" transform="rotate(-32 327.0 386)" font-family="Inter,Segoe UI,sans-serif" font-size="12" fill="#94a3b8">2026-05-24 19:50</text>
<text x="449.5" y="386" text-anchor="end" transform="rotate(-32 449.5 386)" font-family="Inter,Segoe UI,sans-serif" font-size="12" fill="#94a3b8">2026-05-25 16:38</text>
<text x="572.0" y="386" text-anchor="end" transform="rotate(-32 572.0 386)" font-family="Inter,Segoe UI,sans-serif" font-size="12" fill="#94a3b8">2026-05-31 17:12</text>
<text x="670.0" y="386" text-anchor="end" transform="rotate(-32 670.0 386)" font-family="Inter,Segoe UI,sans-serif" font-size="12" fill="#94a3b8">2026-06-18 15:23</text>
<polyline points="82.0,269.5 106.5,268.7 131.0,274.3 155.5,271.4 180.0,270.6 204.5,277.1 229.0,274.4 253.5,275.1 278.0,273.5 302.5,273.4 327.0,274.0 351.5,272.6 376.0,273.9 400.5,256.6 425.0,253.9 449.5,253.8 474.0,246.5 498.5,250.1 523.0,249.4 547.5,254.4 572.0,255.2 596.5,240.8 621.0,83.1 645.5,83.4 670.0,83.1" fill="none" stroke="#60a5fa" stroke-width="3" stroke-linejoin="round" stroke-linecap="round"/>
<circle cx="82.0" cy="269.5" r="4" fill="#60a5fa" stroke="#0f172a" stroke-width="2"><title>Qwen3-0.6B-8bit: 20.398</title></circle>
<circle cx="106.5" cy="268.7" r="4" fill="#60a5fa" stroke="#0f172a" stroke-width="2"><title>Qwen3-0.6B-8bit: 20.660</title></circle>
<circle cx="131.0" cy="274.3" r="4" fill="#60a5fa" stroke="#0f172a" stroke-width="2"><title>Qwen3-0.6B-8bit: 18.662</title></circle>
<circle cx="155.5" cy="271.4" r="4" fill="#60a5fa" stroke="#0f172a" stroke-width="2"><title>Qwen3-0.6B-8bit: 19.709</title></circle>
<circle cx="180.0" cy="270.6" r="4" fill="#60a5fa" stroke="#0f172a" stroke-width="2"><title>Qwen3-0.6B-8bit: 19.969</title></circle>
<circle cx="204.5" cy="277.1" r="4" fill="#60a5fa" stroke="#0f172a" stroke-width="2"><title>Qwen3-0.6B-8bit: 17.653</title></circle>
<circle cx="229.0" cy="274.4" r="4" fill="#60a5fa" stroke="#0f172a" stroke-width="2"><title>Qwen3-0.6B-8bit: 18.601</title></circle>
<circle cx="253.5" cy="275.1" r="4" fill="#60a5fa" stroke="#0f172a" stroke-width="2"><title>Qwen3-0.6B-8bit: 18.364</title></circle>
<circle cx="278.0" cy="273.5" r="4" fill="#60a5fa" stroke="#0f172a" stroke-width="2"><title>Qwen3-0.6B-8bit: 18.946</title></circle>
<circle cx="302.5" cy="273.4" r="4" fill="#60a5fa" stroke="#0f172a" stroke-width="2"><title>Qwen3-0.6B-8bit: 18.960</title></circle>
<circle cx="327.0" cy="274.0" r="4" fill="#60a5fa" stroke="#0f172a" stroke-width="2"><title>Qwen3-0.6B-8bit: 18.768</title></circle>
<circle cx="351.5" cy="272.6" r="4" fill="#60a5fa" stroke="#0f172a" stroke-width="2"><title>Qwen3-0.6B-8bit: 19.271</title></circle>
<circle cx="376.0" cy="273.9" r="4" fill="#60a5fa" stroke="#0f172a" stroke-width="2"><title>Qwen3-0.6B-8bit: 18.808</title></circle>
<circle cx="400.5" cy="256.6" r="4" fill="#60a5fa" stroke="#0f172a" stroke-width="2"><title>Qwen3-0.6B-8bit: 25.035</title></circle>
<circle cx="425.0" cy="253.9" r="4" fill="#60a5fa" stroke="#0f172a" stroke-width="2"><title>Qwen3-0.6B-8bit: 26.004</title></circle>
<circle cx="449.5" cy="253.8" r="4" fill="#60a5fa" stroke="#0f172a" stroke-width="2"><title>Qwen3-0.6B-8bit: 26.039</title></circle>
<circle cx="474.0" cy="246.5" r="4" fill="#60a5fa" stroke="#0f172a" stroke-width="2"><title>Qwen3-0.6B-8bit: 28.681</title></circle>
<circle cx="498.5" cy="250.1" r="4" fill="#60a5fa" stroke="#0f172a" stroke-width="2"><title>Qwen3-0.6B-8bit: 27.392</title></circle>
<circle cx="523.0" cy="249.4" r="4" fill="#60a5fa" stroke="#0f172a" stroke-width="2"><title>Qwen3-0.6B-8bit: 27.618</title></circle>
<circle cx="547.5" cy="254.4" r="4" fill="#60a5fa" stroke="#0f172a" stroke-width="2"><title>Qwen3-0.6B-8bit: 25.825</title></circle>
<circle cx="572.0" cy="255.2" r="4" fill="#60a5fa" stroke="#0f172a" stroke-width="2"><title>Qwen3-0.6B-8bit: 25.538</title></circle>
<circle cx="596.5" cy="240.8" r="4" fill="#60a5fa" stroke="#0f172a" stroke-width="2"><title>Qwen3-0.6B-8bit: 30.731</title></circle>
<circle cx="621.0" cy="83.1" r="4" fill="#60a5fa" stroke="#0f172a" stroke-width="2"><title>Qwen3-0.6B-8bit: 87.609</title></circle>
<circle cx="645.5" cy="83.4" r="4" fill="#60a5fa" stroke="#0f172a" stroke-width="2"><title>Qwen3-0.6B-8bit: 87.524</title></circle>
<circle cx="670.0" cy="83.1" r="4" fill="#60a5fa" stroke="#0f172a" stroke-width="2"><title>Qwen3-0.6B-8bit: 87.609</title></circle>
<circle cx="702" cy="76" r="5" fill="#60a5fa"/>
<text x="716" y="80" font-family="Inter,Segoe UI,sans-serif" font-size="13" fill="#cbd5e1">Qwen3-0.6B-8bit</text>
<polyline points="82.0,233.4 106.5,230.7 131.0,232.5 155.5,247.1 180.0,248.2 204.5,249.4 229.0,247.1 253.5,247.0 278.0,250.2 302.5,246.8 327.0,246.8 351.5,246.7 376.0,248.2 400.5,153.6 425.0,138.3 449.5,138.5 474.0,150.2 498.5,151.4 523.0,149.0 547.5,149.0 572.0,157.9 596.5,149.0 621.0,143.7 645.5,143.2 670.0,143.2" fill="none" stroke="#f97316" stroke-width="3" stroke-linejoin="round" stroke-linecap="round"/>
<circle cx="82.0" cy="233.4" r="4" fill="#f97316" stroke="#0f172a" stroke-width="2"><title>Qwen3-0.6B-bf16: 33.417</title></circle>
<circle cx="106.5" cy="230.7" r="4" fill="#f97316" stroke="#0f172a" stroke-width="2"><title>Qwen3-0.6B-bf16: 34.386</title></circle>
<circle cx="131.0" cy="232.5" r="4" fill="#f97316" stroke="#0f172a" stroke-width="2"><title>Qwen3-0.6B-bf16: 33.745</title></circle>
<circle cx="155.5" cy="247.1" r="4" fill="#f97316" stroke="#0f172a" stroke-width="2"><title>Qwen3-0.6B-bf16: 28.465</title></circle>
<circle cx="180.0" cy="248.2" r="4" fill="#f97316" stroke="#0f172a" stroke-width="2"><title>Qwen3-0.6B-bf16: 28.049</title></circle>
<circle cx="204.5" cy="249.4" r="4" fill="#f97316" stroke="#0f172a" stroke-width="2"><title>Qwen3-0.6B-bf16: 27.642</title></circle>
<circle cx="229.0" cy="247.1" r="4" fill="#f97316" stroke="#0f172a" stroke-width="2"><title>Qwen3-0.6B-bf16: 28.463</title></circle>
<circle cx="253.5" cy="247.0" r="4" fill="#f97316" stroke="#0f172a" stroke-width="2"><title>Qwen3-0.6B-bf16: 28.488</title></circle>
<circle cx="278.0" cy="250.2" r="4" fill="#f97316" stroke="#0f172a" stroke-width="2"><title>Qwen3-0.6B-bf16: 27.349</title></circle>
<circle cx="302.5" cy="246.8" r="4" fill="#f97316" stroke="#0f172a" stroke-width="2"><title>Qwen3-0.6B-bf16: 28.557</title></circle>
<circle cx="327.0" cy="246.8" r="4" fill="#f97316" stroke="#0f172a" stroke-width="2"><title>Qwen3-0.6B-bf16: 28.568</title></circle>
<circle cx="351.5" cy="246.7" r="4" fill="#f97316" stroke="#0f172a" stroke-width="2"><title>Qwen3-0.6B-bf16: 28.600</title></circle>
<circle cx="376.0" cy="248.2" r="4" fill="#f97316" stroke="#0f172a" stroke-width="2"><title>Qwen3-0.6B-bf16: 28.079</title></circle>
<circle cx="400.5" cy="153.6" r="4" fill="#f97316" stroke="#0f172a" stroke-width="2"><title>Qwen3-0.6B-bf16: 62.190</title></circle>
<circle cx="425.0" cy="138.3" r="4" fill="#f97316" stroke="#0f172a" stroke-width="2"><title>Qwen3-0.6B-bf16: 67.708</title></circle>
<circle cx="449.5" cy="138.5" r="4" fill="#f97316" stroke="#0f172a" stroke-width="2"><title>Qwen3-0.6B-bf16: 67.640</title></circle>
<circle cx="474.0" cy="150.2" r="4" fill="#f97316" stroke="#0f172a" stroke-width="2"><title>Qwen3-0.6B-bf16: 63.423</title></circle>
<circle cx="498.5" cy="151.4" r="4" fill="#f97316" stroke="#0f172a" stroke-width="2"><title>Qwen3-0.6B-bf16: 62.990</title></circle>
<circle cx="523.0" cy="149.0" r="4" fill="#f97316" stroke="#0f172a" stroke-width="2"><title>Qwen3-0.6B-bf16: 63.834</title></circle>
<circle cx="547.5" cy="149.0" r="4" fill="#f97316" stroke="#0f172a" stroke-width="2"><title>Qwen3-0.6B-bf16: 63.854</title></circle>
<circle cx="572.0" cy="157.9" r="4" fill="#f97316" stroke="#0f172a" stroke-width="2"><title>Qwen3-0.6B-bf16: 60.641</title></circle>
<circle cx="596.5" cy="149.0" r="4" fill="#f97316" stroke="#0f172a" stroke-width="2"><title>Qwen3-0.6B-bf16: 63.860</title></circle>
<circle cx="621.0" cy="143.7" r="4" fill="#f97316" stroke="#0f172a" stroke-width="2"><title>Qwen3-0.6B-bf16: 65.748</title></circle>
<circle cx="645.5" cy="143.2" r="4" fill="#f97316" stroke="#0f172a" stroke-width="2"><title>Qwen3-0.6B-bf16: 65.949</title></circle>
<circle cx="670.0" cy="143.2" r="4" fill="#f97316" stroke="#0f172a" stroke-width="2"><title>Qwen3-0.6B-bf16: 65.950</title></circle>
<circle cx="702" cy="100" r="5" fill="#f97316"/>
<text x="716" y="104" font-family="Inter,Segoe UI,sans-serif" font-size="13" fill="#cbd5e1">Qwen3-0.6B-bf16</text>
</svg>
