<svg xmlns="http://www.w3.org/2000/svg" width="900" height="420" viewBox="0 0 900 420" role="img" aria-label="Qwen3.6-35B-A3B generation throughput (tokens/sec)">
<rect width="900" height="420" fill="#0f172a" rx="12"/>
<text x="82" y="32" font-family="Inter,Segoe UI,sans-serif" font-size="22" font-weight="700" fill="#f8fafc">Qwen3.6-35B-A3B generation throughput (tokens/sec)</text>
<line x1="82" y1="326.0" x2="670" y2="326.0" stroke="#1e293b" stroke-width="1"/>
<text x="72" y="330.0" text-anchor="end" font-family="Inter,Segoe UI,sans-serif" font-size="12" fill="#94a3b8">0.0</text>
<line x1="82" y1="271.6" x2="670" y2="271.6" stroke="#1e293b" stroke-width="1"/>
<text x="72" y="275.6" text-anchor="end" font-family="Inter,Segoe UI,sans-serif" font-size="12" fill="#94a3b8">6.6</text>
<line x1="82" y1="217.2" x2="670" y2="217.2" stroke="#1e293b" stroke-width="1"/>
<text x="72" y="221.2" text-anchor="end" font-family="Inter,Segoe UI,sans-serif" font-size="12" fill="#94a3b8">13.2</text>
<line x1="82" y1="162.8" x2="670" y2="162.8" stroke="#1e293b" stroke-width="1"/>
<text x="72" y="166.8" text-anchor="end" font-family="Inter,Segoe UI,sans-serif" font-size="12" fill="#94a3b8">19.9</text>
<line x1="82" y1="108.4" x2="670" y2="108.4" stroke="#1e293b" stroke-width="1"/>
<text x="72" y="112.4" text-anchor="end" font-family="Inter,Segoe UI,sans-serif" font-size="12" fill="#94a3b8">26.5</text>
<line x1="82" y1="54.0" x2="670" y2="54.0" stroke="#1e293b" stroke-width="1"/>
<text x="72" y="58.0" text-anchor="end" font-family="Inter,Segoe UI,sans-serif" font-size="12" fill="#94a3b8">33.1</text>
<line x1="82" y1="54" x2="82" y2="326" stroke="#475569"/>
<line x1="82" y1="326" x2="670" y2="326" stroke="#475569"/>
<text x="82.0" y="386" text-anchor="end" transform="rotate(-32 82.0 386)" font-family="Inter,Segoe UI,sans-serif" font-size="12" fill="#94a3b8">2026-05-28 17:33</text>
<text x="192.2" y="386" text-anchor="end" transform="rotate(-32 192.2 386)" font-family="Inter,Segoe UI,sans-serif" font-size="12" fill="#94a3b8">2026-06-04 07:22</text>
<text x="302.5" y="386" text-anchor="end" transform="rotate(-32 302.5 386)" font-family="Inter,Segoe UI,sans-serif" font-size="12" fill="#94a3b8">2026-06-19 15:37</text>
<text x="412.8" y="386" text-anchor="end" transform="rotate(-32 412.8 386)" font-family="Inter,Segoe UI,sans-serif" font-size="12" fill="#94a3b8">2026-07-04 21:20</text>
<text x="523.0" y="386" text-anchor="end" transform="rotate(-32 523.0 386)" font-family="Inter,Segoe UI,sans-serif" font-size="12" fill="#94a3b8">2026-07-09 12:42</text>
<text x="633.2" y="386" text-anchor="end" transform="rotate(-32 633.2 386)" font-family="Inter,Segoe UI,sans-serif" font-size="12" fill="#94a3b8">2026-07-15 10:47</text>
<text x="670.0" y="386" text-anchor="end" transform="rotate(-32 670.0 386)" font-family="Inter,Segoe UI,sans-serif" font-size="12" fill="#94a3b8">2026-07-16 11:53</text>
<polyline points="82.0,258.1 118.8,260.1 155.5,257.3 192.2,152.4 229.0,152.6 265.8,151.2 302.5,153.5 339.2,153.8 376.0,150.9 412.8,146.1 449.5,145.7 486.2,144.3 523.0,143.8 559.8,143.8 596.5,145.9 633.2,84.4 670.0,83.1" fill="none" stroke="#60a5fa" stroke-width="3" stroke-linejoin="round" stroke-linecap="round"/>
<circle cx="82.0" cy="258.1" r="4" fill="#60a5fa" stroke="#0f172a" stroke-width="2"><title>Qwen3.6-35B-A3B-8bit: 8.268</title></circle>
<circle cx="118.8" cy="260.1" r="4" fill="#60a5fa" stroke="#0f172a" stroke-width="2"><title>Qwen3.6-35B-A3B-8bit: 8.022</title></circle>
<circle cx="155.5" cy="257.3" r="4" fill="#60a5fa" stroke="#0f172a" stroke-width="2"><title>Qwen3.6-35B-A3B-8bit: 8.362</title></circle>
<circle cx="192.2" cy="152.4" r="4" fill="#60a5fa" stroke="#0f172a" stroke-width="2"><title>Qwen3.6-35B-A3B-8bit: 21.135</title></circle>
<circle cx="229.0" cy="152.6" r="4" fill="#60a5fa" stroke="#0f172a" stroke-width="2"><title>Qwen3.6-35B-A3B-8bit: 21.113</title></circle>
<circle cx="265.8" cy="151.2" r="4" fill="#60a5fa" stroke="#0f172a" stroke-width="2"><title>Qwen3.6-35B-A3B-8bit: 21.288</title></circle>
<circle cx="302.5" cy="153.5" r="4" fill="#60a5fa" stroke="#0f172a" stroke-width="2"><title>Qwen3.6-35B-A3B-8bit: 20.996</title></circle>
<circle cx="339.2" cy="153.8" r="4" fill="#60a5fa" stroke="#0f172a" stroke-width="2"><title>Qwen3.6-35B-A3B-8bit: 20.969</title></circle>
<circle cx="376.0" cy="150.9" r="4" fill="#60a5fa" stroke="#0f172a" stroke-width="2"><title>Qwen3.6-35B-A3B-8bit: 21.320</title></circle>
<circle cx="412.8" cy="146.1" r="4" fill="#60a5fa" stroke="#0f172a" stroke-width="2"><title>Qwen3.6-35B-A3B-8bit: 21.898</title></circle>
<circle cx="449.5" cy="145.7" r="4" fill="#60a5fa" stroke="#0f172a" stroke-width="2"><title>Qwen3.6-35B-A3B-8bit: 21.956</title></circle>
<circle cx="486.2" cy="144.3" r="4" fill="#60a5fa" stroke="#0f172a" stroke-width="2"><title>Qwen3.6-35B-A3B-8bit: 22.127</title></circle>
<circle cx="523.0" cy="143.8" r="4" fill="#60a5fa" stroke="#0f172a" stroke-width="2"><title>Qwen3.6-35B-A3B-8bit: 22.189</title></circle>
<circle cx="559.8" cy="143.8" r="4" fill="#60a5fa" stroke="#0f172a" stroke-width="2"><title>Qwen3.6-35B-A3B-8bit: 22.187</title></circle>
<circle cx="596.5" cy="145.9" r="4" fill="#60a5fa" stroke="#0f172a" stroke-width="2"><title>Qwen3.6-35B-A3B-8bit: 21.922</title></circle>
<circle cx="633.2" cy="84.4" r="4" fill="#60a5fa" stroke="#0f172a" stroke-width="2"><title>Qwen3.6-35B-A3B-8bit: 29.409</title></circle>
<circle cx="670.0" cy="83.1" r="4" fill="#60a5fa" stroke="#0f172a" stroke-width="2"><title>Qwen3.6-35B-A3B-8bit: 29.568</title></circle>
<circle cx="702" cy="76" r="5" fill="#60a5fa"/>
<text x="716" y="80" font-family="Inter,Segoe UI,sans-serif" font-size="13" fill="#cbd5e1">Qwen3.6-35B-A3B-8bit</text>
</svg>
