<svg xmlns="http://www.w3.org/2000/svg" width="900" height="420" viewBox="0 0 900 420" role="img" aria-label="Qwen3-0.6B generation throughput (tokens/sec)">
<rect width="900" height="420" fill="#0f172a" rx="12"/>
<text x="82" y="32" font-family="Inter,Segoe UI,sans-serif" font-size="22" font-weight="700" fill="#f8fafc">Qwen3-0.6B generation throughput (tokens/sec)</text>
<line x1="82" y1="326.0" x2="670" y2="326.0" stroke="#1e293b" stroke-width="1"/>
<text x="72" y="330.0" text-anchor="end" font-family="Inter,Segoe UI,sans-serif" font-size="12" fill="#94a3b8">0.0</text>
<line x1="82" y1="271.6" x2="670" y2="271.6" stroke="#1e293b" stroke-width="1"/>
<text x="72" y="275.6" text-anchor="end" font-family="Inter,Segoe UI,sans-serif" font-size="12" fill="#94a3b8">27.1</text>
<line x1="82" y1="217.2" x2="670" y2="217.2" stroke="#1e293b" stroke-width="1"/>
<text x="72" y="221.2" text-anchor="end" font-family="Inter,Segoe UI,sans-serif" font-size="12" fill="#94a3b8">54.2</text>
<line x1="82" y1="162.8" x2="670" y2="162.8" stroke="#1e293b" stroke-width="1"/>
<text x="72" y="166.8" text-anchor="end" font-family="Inter,Segoe UI,sans-serif" font-size="12" fill="#94a3b8">81.3</text>
<line x1="82" y1="108.4" x2="670" y2="108.4" stroke="#1e293b" stroke-width="1"/>
<text x="72" y="112.4" text-anchor="end" font-family="Inter,Segoe UI,sans-serif" font-size="12" fill="#94a3b8">108.4</text>
<line x1="82" y1="54.0" x2="670" y2="54.0" stroke="#1e293b" stroke-width="1"/>
<text x="72" y="58.0" text-anchor="end" font-family="Inter,Segoe UI,sans-serif" font-size="12" fill="#94a3b8">135.5</text>
<line x1="82" y1="54" x2="82" y2="326" stroke="#475569"/>
<line x1="82" y1="326" x2="670" y2="326" stroke="#475569"/>
<text x="82.0" y="386" text-anchor="end" transform="rotate(-32 82.0 386)" font-family="Inter,Segoe UI,sans-serif" font-size="12" fill="#94a3b8">2026-05-18 08:58</text>
<text x="182.8" y="386" text-anchor="end" transform="rotate(-32 182.8 386)" font-family="Inter,Segoe UI,sans-serif" font-size="12" fill="#94a3b8">2026-05-20 10:17</text>
<text x="283.6" y="386" text-anchor="end" transform="rotate(-32 283.6 386)" font-family="Inter,Segoe UI,sans-serif" font-size="12" fill="#94a3b8">2026-05-24 20:21</text>
<text x="384.4" y="386" text-anchor="end" transform="rotate(-32 384.4 386)" font-family="Inter,Segoe UI,sans-serif" font-size="12" fill="#94a3b8">2026-05-28 14:42</text>
<text x="485.2" y="386" text-anchor="end" transform="rotate(-32 485.2 386)" font-family="Inter,Segoe UI,sans-serif" font-size="12" fill="#94a3b8">2026-06-18 15:23</text>
<text x="586.0" y="386" text-anchor="end" transform="rotate(-32 586.0 386)" font-family="Inter,Segoe UI,sans-serif" font-size="12" fill="#94a3b8">2026-07-09 11:58</text>
<text x="670.0" y="386" text-anchor="end" transform="rotate(-32 670.0 386)" font-family="Inter,Segoe UI,sans-serif" font-size="12" fill="#94a3b8">2026-07-16 11:53</text>
<polyline points="82.0,285.1 98.8,284.5 115.6,288.5 132.4,286.4 149.2,285.9 166.0,290.6 182.8,288.7 199.6,289.1 216.4,288.0 233.2,287.9 250.0,288.3 266.8,287.3 283.6,288.3 300.4,275.8 317.2,273.8 334.0,273.7 350.8,268.4 367.6,271.0 384.4,270.6 401.2,274.2 418.0,274.7 434.8,264.3 451.6,150.2 468.4,150.3 485.2,150.2 502.0,153.7 518.8,154.9 535.6,157.5 552.4,145.4 569.2,145.5 586.0,143.5 602.8,145.9 619.6,145.3 636.4,145.3 653.2,83.1 670.0,85.6" fill="none" stroke="#60a5fa" stroke-width="3" stroke-linejoin="round" stroke-linecap="round"/>
<circle cx="82.0" cy="285.1" r="4" fill="#60a5fa" stroke="#0f172a" stroke-width="2"><title>Qwen3-0.6B-8bit: 20.398</title></circle>
<circle cx="98.8" cy="284.5" r="4" fill="#60a5fa" stroke="#0f172a" stroke-width="2"><title>Qwen3-0.6B-8bit: 20.660</title></circle>
<circle cx="115.6" cy="288.5" r="4" fill="#60a5fa" stroke="#0f172a" stroke-width="2"><title>Qwen3-0.6B-8bit: 18.662</title></circle>
<circle cx="132.4" cy="286.4" r="4" fill="#60a5fa" stroke="#0f172a" stroke-width="2"><title>Qwen3-0.6B-8bit: 19.709</title></circle>
<circle cx="149.2" cy="285.9" r="4" fill="#60a5fa" stroke="#0f172a" stroke-width="2"><title>Qwen3-0.6B-8bit: 19.969</title></circle>
<circle cx="166.0" cy="290.6" r="4" fill="#60a5fa" stroke="#0f172a" stroke-width="2"><title>Qwen3-0.6B-8bit: 17.653</title></circle>
<circle cx="182.8" cy="288.7" r="4" fill="#60a5fa" stroke="#0f172a" stroke-width="2"><title>Qwen3-0.6B-8bit: 18.601</title></circle>
<circle cx="199.6" cy="289.1" r="4" fill="#60a5fa" stroke="#0f172a" stroke-width="2"><title>Qwen3-0.6B-8bit: 18.364</title></circle>
<circle cx="216.4" cy="288.0" r="4" fill="#60a5fa" stroke="#0f172a" stroke-width="2"><title>Qwen3-0.6B-8bit: 18.946</title></circle>
<circle cx="233.2" cy="287.9" r="4" fill="#60a5fa" stroke="#0f172a" stroke-width="2"><title>Qwen3-0.6B-8bit: 18.960</title></circle>
<circle cx="250.0" cy="288.3" r="4" fill="#60a5fa" stroke="#0f172a" stroke-width="2"><title>Qwen3-0.6B-8bit: 18.768</title></circle>
<circle cx="266.8" cy="287.3" r="4" fill="#60a5fa" stroke="#0f172a" stroke-width="2"><title>Qwen3-0.6B-8bit: 19.271</title></circle>
<circle cx="283.6" cy="288.3" r="4" fill="#60a5fa" stroke="#0f172a" stroke-width="2"><title>Qwen3-0.6B-8bit: 18.808</title></circle>
<circle cx="300.4" cy="275.8" r="4" fill="#60a5fa" stroke="#0f172a" stroke-width="2"><title>Qwen3-0.6B-8bit: 25.035</title></circle>
<circle cx="317.2" cy="273.8" r="4" fill="#60a5fa" stroke="#0f172a" stroke-width="2"><title>Qwen3-0.6B-8bit: 26.004</title></circle>
<circle cx="334.0" cy="273.7" r="4" fill="#60a5fa" stroke="#0f172a" stroke-width="2"><title>Qwen3-0.6B-8bit: 26.039</title></circle>
<circle cx="350.8" cy="268.4" r="4" fill="#60a5fa" stroke="#0f172a" stroke-width="2"><title>Qwen3-0.6B-8bit: 28.681</title></circle>
<circle cx="367.6" cy="271.0" r="4" fill="#60a5fa" stroke="#0f172a" stroke-width="2"><title>Qwen3-0.6B-8bit: 27.392</title></circle>
<circle cx="384.4" cy="270.6" r="4" fill="#60a5fa" stroke="#0f172a" stroke-width="2"><title>Qwen3-0.6B-8bit: 27.618</title></circle>
<circle cx="401.2" cy="274.2" r="4" fill="#60a5fa" stroke="#0f172a" stroke-width="2"><title>Qwen3-0.6B-8bit: 25.825</title></circle>
<circle cx="418.0" cy="274.7" r="4" fill="#60a5fa" stroke="#0f172a" stroke-width="2"><title>Qwen3-0.6B-8bit: 25.538</title></circle>
<circle cx="434.8" cy="264.3" r="4" fill="#60a5fa" stroke="#0f172a" stroke-width="2"><title>Qwen3-0.6B-8bit: 30.731</title></circle>
<circle cx="451.6" cy="150.2" r="4" fill="#60a5fa" stroke="#0f172a" stroke-width="2"><title>Qwen3-0.6B-8bit: 87.609</title></circle>
<circle cx="468.4" cy="150.3" r="4" fill="#60a5fa" stroke="#0f172a" stroke-width="2"><title>Qwen3-0.6B-8bit: 87.524</title></circle>
<circle cx="485.2" cy="150.2" r="4" fill="#60a5fa" stroke="#0f172a" stroke-width="2"><title>Qwen3-0.6B-8bit: 87.609</title></circle>
<circle cx="502.0" cy="153.7" r="4" fill="#60a5fa" stroke="#0f172a" stroke-width="2"><title>Qwen3-0.6B-8bit: 85.857</title></circle>
<circle cx="518.8" cy="154.9" r="4" fill="#60a5fa" stroke="#0f172a" stroke-width="2"><title>Qwen3-0.6B-8bit: 85.274</title></circle>
<circle cx="535.6" cy="157.5" r="4" fill="#60a5fa" stroke="#0f172a" stroke-width="2"><title>Qwen3-0.6B-8bit: 83.962</title></circle>
<circle cx="552.4" cy="145.4" r="4" fill="#60a5fa" stroke="#0f172a" stroke-width="2"><title>Qwen3-0.6B-8bit: 89.988</title></circle>
<circle cx="569.2" cy="145.5" r="4" fill="#60a5fa" stroke="#0f172a" stroke-width="2"><title>Qwen3-0.6B-8bit: 89.920</title></circle>
<circle cx="586.0" cy="143.5" r="4" fill="#60a5fa" stroke="#0f172a" stroke-width="2"><title>Qwen3-0.6B-8bit: 90.933</title></circle>
<circle cx="602.8" cy="145.9" r="4" fill="#60a5fa" stroke="#0f172a" stroke-width="2"><title>Qwen3-0.6B-8bit: 89.741</title></circle>
<circle cx="619.6" cy="145.3" r="4" fill="#60a5fa" stroke="#0f172a" stroke-width="2"><title>Qwen3-0.6B-8bit: 90.037</title></circle>
<circle cx="636.4" cy="145.3" r="4" fill="#60a5fa" stroke="#0f172a" stroke-width="2"><title>Qwen3-0.6B-8bit: 90.042</title></circle>
<circle cx="653.2" cy="83.1" r="4" fill="#60a5fa" stroke="#0f172a" stroke-width="2"><title>Qwen3-0.6B-8bit: 121.007</title></circle>
<circle cx="670.0" cy="85.6" r="4" fill="#60a5fa" stroke="#0f172a" stroke-width="2"><title>Qwen3-0.6B-8bit: 119.797</title></circle>
<circle cx="702" cy="76" r="5" fill="#60a5fa"/>
<text x="716" y="80" font-family="Inter,Segoe UI,sans-serif" font-size="13" fill="#cbd5e1">Qwen3-0.6B-8bit</text>
<polyline points="82.0,258.9 98.8,257.0 115.6,258.3 132.4,268.9 149.2,269.7 166.0,270.5 182.8,268.9 199.6,268.8 216.4,271.1 233.2,268.7 250.0,268.7 266.8,268.6 283.6,269.6 300.4,201.2 317.2,190.1 334.0,190.2 350.8,198.7 367.6,199.6 384.4,197.9 401.2,197.8 418.0,204.3 434.8,197.8 451.6,194.0 468.4,193.6 485.2,193.6 502.0,194.6 518.8,195.5 535.6,200.6 552.4,191.7 569.2,192.5 586.0,191.5 602.8,191.6 619.6,191.8 636.4,191.5 653.2,189.6 670.0,189.5" fill="none" stroke="#f97316" stroke-width="3" stroke-linejoin="round" stroke-linecap="round"/>
<circle cx="82.0" cy="258.9" r="4" fill="#f97316" stroke="#0f172a" stroke-width="2"><title>Qwen3-0.6B-bf16: 33.417</title></circle>
<circle cx="98.8" cy="257.0" r="4" fill="#f97316" stroke="#0f172a" stroke-width="2"><title>Qwen3-0.6B-bf16: 34.386</title></circle>
<circle cx="115.6" cy="258.3" r="4" fill="#f97316" stroke="#0f172a" stroke-width="2"><title>Qwen3-0.6B-bf16: 33.745</title></circle>
<circle cx="132.4" cy="268.9" r="4" fill="#f97316" stroke="#0f172a" stroke-width="2"><title>Qwen3-0.6B-bf16: 28.465</title></circle>
<circle cx="149.2" cy="269.7" r="4" fill="#f97316" stroke="#0f172a" stroke-width="2"><title>Qwen3-0.6B-bf16: 28.049</title></circle>
<circle cx="166.0" cy="270.5" r="4" fill="#f97316" stroke="#0f172a" stroke-width="2"><title>Qwen3-0.6B-bf16: 27.642</title></circle>
<circle cx="182.8" cy="268.9" r="4" fill="#f97316" stroke="#0f172a" stroke-width="2"><title>Qwen3-0.6B-bf16: 28.463</title></circle>
<circle cx="199.6" cy="268.8" r="4" fill="#f97316" stroke="#0f172a" stroke-width="2"><title>Qwen3-0.6B-bf16: 28.488</title></circle>
<circle cx="216.4" cy="271.1" r="4" fill="#f97316" stroke="#0f172a" stroke-width="2"><title>Qwen3-0.6B-bf16: 27.349</title></circle>
<circle cx="233.2" cy="268.7" r="4" fill="#f97316" stroke="#0f172a" stroke-width="2"><title>Qwen3-0.6B-bf16: 28.557</title></circle>
<circle cx="250.0" cy="268.7" r="4" fill="#f97316" stroke="#0f172a" stroke-width="2"><title>Qwen3-0.6B-bf16: 28.568</title></circle>
<circle cx="266.8" cy="268.6" r="4" fill="#f97316" stroke="#0f172a" stroke-width="2"><title>Qwen3-0.6B-bf16: 28.600</title></circle>
<circle cx="283.6" cy="269.6" r="4" fill="#f97316" stroke="#0f172a" stroke-width="2"><title>Qwen3-0.6B-bf16: 28.079</title></circle>
<circle cx="300.4" cy="201.2" r="4" fill="#f97316" stroke="#0f172a" stroke-width="2"><title>Qwen3-0.6B-bf16: 62.190</title></circle>
<circle cx="317.2" cy="190.1" r="4" fill="#f97316" stroke="#0f172a" stroke-width="2"><title>Qwen3-0.6B-bf16: 67.708</title></circle>
<circle cx="334.0" cy="190.2" r="4" fill="#f97316" stroke="#0f172a" stroke-width="2"><title>Qwen3-0.6B-bf16: 67.640</title></circle>
<circle cx="350.8" cy="198.7" r="4" fill="#f97316" stroke="#0f172a" stroke-width="2"><title>Qwen3-0.6B-bf16: 63.423</title></circle>
<circle cx="367.6" cy="199.6" r="4" fill="#f97316" stroke="#0f172a" stroke-width="2"><title>Qwen3-0.6B-bf16: 62.990</title></circle>
<circle cx="384.4" cy="197.9" r="4" fill="#f97316" stroke="#0f172a" stroke-width="2"><title>Qwen3-0.6B-bf16: 63.834</title></circle>
<circle cx="401.2" cy="197.8" r="4" fill="#f97316" stroke="#0f172a" stroke-width="2"><title>Qwen3-0.6B-bf16: 63.854</title></circle>
<circle cx="418.0" cy="204.3" r="4" fill="#f97316" stroke="#0f172a" stroke-width="2"><title>Qwen3-0.6B-bf16: 60.641</title></circle>
<circle cx="434.8" cy="197.8" r="4" fill="#f97316" stroke="#0f172a" stroke-width="2"><title>Qwen3-0.6B-bf16: 63.860</title></circle>
<circle cx="451.6" cy="194.0" r="4" fill="#f97316" stroke="#0f172a" stroke-width="2"><title>Qwen3-0.6B-bf16: 65.748</title></circle>
<circle cx="468.4" cy="193.6" r="4" fill="#f97316" stroke="#0f172a" stroke-width="2"><title>Qwen3-0.6B-bf16: 65.949</title></circle>
<circle cx="485.2" cy="193.6" r="4" fill="#f97316" stroke="#0f172a" stroke-width="2"><title>Qwen3-0.6B-bf16: 65.950</title></circle>
<circle cx="502.0" cy="194.6" r="4" fill="#f97316" stroke="#0f172a" stroke-width="2"><title>Qwen3-0.6B-bf16: 65.486</title></circle>
<circle cx="518.8" cy="195.5" r="4" fill="#f97316" stroke="#0f172a" stroke-width="2"><title>Qwen3-0.6B-bf16: 65.027</title></circle>
<circle cx="535.6" cy="200.6" r="4" fill="#f97316" stroke="#0f172a" stroke-width="2"><title>Qwen3-0.6B-bf16: 62.497</title></circle>
<circle cx="552.4" cy="191.7" r="4" fill="#f97316" stroke="#0f172a" stroke-width="2"><title>Qwen3-0.6B-bf16: 66.926</title></circle>
<circle cx="569.2" cy="192.5" r="4" fill="#f97316" stroke="#0f172a" stroke-width="2"><title>Qwen3-0.6B-bf16: 66.528</title></circle>
<circle cx="586.0" cy="191.5" r="4" fill="#f97316" stroke="#0f172a" stroke-width="2"><title>Qwen3-0.6B-bf16: 66.992</title></circle>
<circle cx="602.8" cy="191.6" r="4" fill="#f97316" stroke="#0f172a" stroke-width="2"><title>Qwen3-0.6B-bf16: 66.982</title></circle>
<circle cx="619.6" cy="191.8" r="4" fill="#f97316" stroke="#0f172a" stroke-width="2"><title>Qwen3-0.6B-bf16: 66.848</title></circle>
<circle cx="636.4" cy="191.5" r="4" fill="#f97316" stroke="#0f172a" stroke-width="2"><title>Qwen3-0.6B-bf16: 67.037</title></circle>
<circle cx="653.2" cy="189.6" r="4" fill="#f97316" stroke="#0f172a" stroke-width="2"><title>Qwen3-0.6B-bf16: 67.981</title></circle>
<circle cx="670.0" cy="189.5" r="4" fill="#f97316" stroke="#0f172a" stroke-width="2"><title>Qwen3-0.6B-bf16: 67.994</title></circle>
<circle cx="702" cy="100" r="5" fill="#f97316"/>
<text x="716" y="104" font-family="Inter,Segoe UI,sans-serif" font-size="13" fill="#cbd5e1">Qwen3-0.6B-bf16</text>
</svg>
