<svg xmlns="http://www.w3.org/2000/svg" width="900" height="420" viewBox="0 0 900 420" role="img" aria-label="Qwen3-0.6B generation throughput (tokens/sec)">
<rect width="900" height="420" fill="#0f172a" rx="12"/>
<text x="82" y="32" font-family="Inter,Segoe UI,sans-serif" font-size="22" font-weight="700" fill="#f8fafc">Qwen3-0.6B generation throughput (tokens/sec)</text>
<line x1="82" y1="326.0" x2="670" y2="326.0" stroke="#1e293b" stroke-width="1"/>
<text x="72" y="330.0" text-anchor="end" font-family="Inter,Segoe UI,sans-serif" font-size="12" fill="#94a3b8">0.0</text>
<line x1="82" y1="271.6" x2="670" y2="271.6" stroke="#1e293b" stroke-width="1"/>
<text x="72" y="275.6" text-anchor="end" font-family="Inter,Segoe UI,sans-serif" font-size="12" fill="#94a3b8">19.6</text>
<line x1="82" y1="217.2" x2="670" y2="217.2" stroke="#1e293b" stroke-width="1"/>
<text x="72" y="221.2" text-anchor="end" font-family="Inter,Segoe UI,sans-serif" font-size="12" fill="#94a3b8">39.2</text>
<line x1="82" y1="162.8" x2="670" y2="162.8" stroke="#1e293b" stroke-width="1"/>
<text x="72" y="166.8" text-anchor="end" font-family="Inter,Segoe UI,sans-serif" font-size="12" fill="#94a3b8">58.9</text>
<line x1="82" y1="108.4" x2="670" y2="108.4" stroke="#1e293b" stroke-width="1"/>
<text x="72" y="112.4" text-anchor="end" font-family="Inter,Segoe UI,sans-serif" font-size="12" fill="#94a3b8">78.5</text>
<line x1="82" y1="54.0" x2="670" y2="54.0" stroke="#1e293b" stroke-width="1"/>
<text x="72" y="58.0" text-anchor="end" font-family="Inter,Segoe UI,sans-serif" font-size="12" fill="#94a3b8">98.1</text>
<line x1="82" y1="54" x2="82" y2="326" stroke="#475569"/>
<line x1="82" y1="326" x2="670" y2="326" stroke="#475569"/>
<text x="82.0" y="386" text-anchor="end" transform="rotate(-32 82.0 386)" font-family="Inter,Segoe UI,sans-serif" font-size="12" fill="#94a3b8">2026-05-18 08:58</text>
<text x="199.6" y="386" text-anchor="end" transform="rotate(-32 199.6 386)" font-family="Inter,Segoe UI,sans-serif" font-size="12" fill="#94a3b8">2026-05-20 09:39</text>
<text x="317.2" y="386" text-anchor="end" transform="rotate(-32 317.2 386)" font-family="Inter,Segoe UI,sans-serif" font-size="12" fill="#94a3b8">2026-05-24 19:50</text>
<text x="434.8" y="386" text-anchor="end" transform="rotate(-32 434.8 386)" font-family="Inter,Segoe UI,sans-serif" font-size="12" fill="#94a3b8">2026-05-25 16:38</text>
<text x="552.4" y="386" text-anchor="end" transform="rotate(-32 552.4 386)" font-family="Inter,Segoe UI,sans-serif" font-size="12" fill="#94a3b8">2026-05-31 17:12</text>
<text x="670.0" y="386" text-anchor="end" transform="rotate(-32 670.0 386)" font-family="Inter,Segoe UI,sans-serif" font-size="12" fill="#94a3b8">2026-06-19 15:37</text>
<polyline points="82.0,269.5 105.5,268.7 129.0,274.3 152.6,271.4 176.1,270.6 199.6,277.1 223.1,274.4 246.6,275.1 270.2,273.5 293.7,273.4 317.2,274.0 340.7,272.6 364.2,273.9 387.8,256.6 411.3,253.9 434.8,253.8 458.3,246.5 481.8,250.1 505.4,249.4 528.9,254.4 552.4,255.2 575.9,240.8 599.4,83.1 623.0,83.4 646.5,83.1 670.0,88.0" fill="none" stroke="#60a5fa" stroke-width="3" stroke-linejoin="round" stroke-linecap="round"/>
<circle cx="82.0" cy="269.5" r="4" fill="#60a5fa" stroke="#0f172a" stroke-width="2"><title>Qwen3-0.6B-8bit: 20.398</title></circle>
<circle cx="105.5" cy="268.7" r="4" fill="#60a5fa" stroke="#0f172a" stroke-width="2"><title>Qwen3-0.6B-8bit: 20.660</title></circle>
<circle cx="129.0" cy="274.3" r="4" fill="#60a5fa" stroke="#0f172a" stroke-width="2"><title>Qwen3-0.6B-8bit: 18.662</title></circle>
<circle cx="152.6" cy="271.4" r="4" fill="#60a5fa" stroke="#0f172a" stroke-width="2"><title>Qwen3-0.6B-8bit: 19.709</title></circle>
<circle cx="176.1" cy="270.6" r="4" fill="#60a5fa" stroke="#0f172a" stroke-width="2"><title>Qwen3-0.6B-8bit: 19.969</title></circle>
<circle cx="199.6" cy="277.1" r="4" fill="#60a5fa" stroke="#0f172a" stroke-width="2"><title>Qwen3-0.6B-8bit: 17.653</title></circle>
<circle cx="223.1" cy="274.4" r="4" fill="#60a5fa" stroke="#0f172a" stroke-width="2"><title>Qwen3-0.6B-8bit: 18.601</title></circle>
<circle cx="246.6" cy="275.1" r="4" fill="#60a5fa" stroke="#0f172a" stroke-width="2"><title>Qwen3-0.6B-8bit: 18.364</title></circle>
<circle cx="270.2" cy="273.5" r="4" fill="#60a5fa" stroke="#0f172a" stroke-width="2"><title>Qwen3-0.6B-8bit: 18.946</title></circle>
<circle cx="293.7" cy="273.4" r="4" fill="#60a5fa" stroke="#0f172a" stroke-width="2"><title>Qwen3-0.6B-8bit: 18.960</title></circle>
<circle cx="317.2" cy="274.0" r="4" fill="#60a5fa" stroke="#0f172a" stroke-width="2"><title>Qwen3-0.6B-8bit: 18.768</title></circle>
<circle cx="340.7" cy="272.6" r="4" fill="#60a5fa" stroke="#0f172a" stroke-width="2"><title>Qwen3-0.6B-8bit: 19.271</title></circle>
<circle cx="364.2" cy="273.9" r="4" fill="#60a5fa" stroke="#0f172a" stroke-width="2"><title>Qwen3-0.6B-8bit: 18.808</title></circle>
<circle cx="387.8" cy="256.6" r="4" fill="#60a5fa" stroke="#0f172a" stroke-width="2"><title>Qwen3-0.6B-8bit: 25.035</title></circle>
<circle cx="411.3" cy="253.9" r="4" fill="#60a5fa" stroke="#0f172a" stroke-width="2"><title>Qwen3-0.6B-8bit: 26.004</title></circle>
<circle cx="434.8" cy="253.8" r="4" fill="#60a5fa" stroke="#0f172a" stroke-width="2"><title>Qwen3-0.6B-8bit: 26.039</title></circle>
<circle cx="458.3" cy="246.5" r="4" fill="#60a5fa" stroke="#0f172a" stroke-width="2"><title>Qwen3-0.6B-8bit: 28.681</title></circle>
<circle cx="481.8" cy="250.1" r="4" fill="#60a5fa" stroke="#0f172a" stroke-width="2"><title>Qwen3-0.6B-8bit: 27.392</title></circle>
<circle cx="505.4" cy="249.4" r="4" fill="#60a5fa" stroke="#0f172a" stroke-width="2"><title>Qwen3-0.6B-8bit: 27.618</title></circle>
<circle cx="528.9" cy="254.4" r="4" fill="#60a5fa" stroke="#0f172a" stroke-width="2"><title>Qwen3-0.6B-8bit: 25.825</title></circle>
<circle cx="552.4" cy="255.2" r="4" fill="#60a5fa" stroke="#0f172a" stroke-width="2"><title>Qwen3-0.6B-8bit: 25.538</title></circle>
<circle cx="575.9" cy="240.8" r="4" fill="#60a5fa" stroke="#0f172a" stroke-width="2"><title>Qwen3-0.6B-8bit: 30.731</title></circle>
<circle cx="599.4" cy="83.1" r="4" fill="#60a5fa" stroke="#0f172a" stroke-width="2"><title>Qwen3-0.6B-8bit: 87.609</title></circle>
<circle cx="623.0" cy="83.4" r="4" fill="#60a5fa" stroke="#0f172a" stroke-width="2"><title>Qwen3-0.6B-8bit: 87.524</title></circle>
<circle cx="646.5" cy="83.1" r="4" fill="#60a5fa" stroke="#0f172a" stroke-width="2"><title>Qwen3-0.6B-8bit: 87.609</title></circle>
<circle cx="670.0" cy="88.0" r="4" fill="#60a5fa" stroke="#0f172a" stroke-width="2"><title>Qwen3-0.6B-8bit: 85.857</title></circle>
<circle cx="702" cy="76" r="5" fill="#60a5fa"/>
<text x="716" y="80" font-family="Inter,Segoe UI,sans-serif" font-size="13" fill="#cbd5e1">Qwen3-0.6B-8bit</text>
<polyline points="82.0,233.4 105.5,230.7 129.0,232.5 152.6,247.1 176.1,248.2 199.6,249.4 223.1,247.1 246.6,247.0 270.2,250.2 293.7,246.8 317.2,246.8 340.7,246.7 364.2,248.2 387.8,153.6 411.3,138.3 434.8,138.5 458.3,150.2 481.8,151.4 505.4,149.0 528.9,149.0 552.4,157.9 575.9,149.0 599.4,143.7 623.0,143.2 646.5,143.2 670.0,144.5" fill="none" stroke="#f97316" stroke-width="3" stroke-linejoin="round" stroke-linecap="round"/>
<circle cx="82.0" cy="233.4" r="4" fill="#f97316" stroke="#0f172a" stroke-width="2"><title>Qwen3-0.6B-bf16: 33.417</title></circle>
<circle cx="105.5" cy="230.7" r="4" fill="#f97316" stroke="#0f172a" stroke-width="2"><title>Qwen3-0.6B-bf16: 34.386</title></circle>
<circle cx="129.0" cy="232.5" r="4" fill="#f97316" stroke="#0f172a" stroke-width="2"><title>Qwen3-0.6B-bf16: 33.745</title></circle>
<circle cx="152.6" cy="247.1" r="4" fill="#f97316" stroke="#0f172a" stroke-width="2"><title>Qwen3-0.6B-bf16: 28.465</title></circle>
<circle cx="176.1" cy="248.2" r="4" fill="#f97316" stroke="#0f172a" stroke-width="2"><title>Qwen3-0.6B-bf16: 28.049</title></circle>
<circle cx="199.6" cy="249.4" r="4" fill="#f97316" stroke="#0f172a" stroke-width="2"><title>Qwen3-0.6B-bf16: 27.642</title></circle>
<circle cx="223.1" cy="247.1" r="4" fill="#f97316" stroke="#0f172a" stroke-width="2"><title>Qwen3-0.6B-bf16: 28.463</title></circle>
<circle cx="246.6" cy="247.0" r="4" fill="#f97316" stroke="#0f172a" stroke-width="2"><title>Qwen3-0.6B-bf16: 28.488</title></circle>
<circle cx="270.2" cy="250.2" r="4" fill="#f97316" stroke="#0f172a" stroke-width="2"><title>Qwen3-0.6B-bf16: 27.349</title></circle>
<circle cx="293.7" cy="246.8" r="4" fill="#f97316" stroke="#0f172a" stroke-width="2"><title>Qwen3-0.6B-bf16: 28.557</title></circle>
<circle cx="317.2" cy="246.8" r="4" fill="#f97316" stroke="#0f172a" stroke-width="2"><title>Qwen3-0.6B-bf16: 28.568</title></circle>
<circle cx="340.7" cy="246.7" r="4" fill="#f97316" stroke="#0f172a" stroke-width="2"><title>Qwen3-0.6B-bf16: 28.600</title></circle>
<circle cx="364.2" cy="248.2" r="4" fill="#f97316" stroke="#0f172a" stroke-width="2"><title>Qwen3-0.6B-bf16: 28.079</title></circle>
<circle cx="387.8" cy="153.6" r="4" fill="#f97316" stroke="#0f172a" stroke-width="2"><title>Qwen3-0.6B-bf16: 62.190</title></circle>
<circle cx="411.3" cy="138.3" r="4" fill="#f97316" stroke="#0f172a" stroke-width="2"><title>Qwen3-0.6B-bf16: 67.708</title></circle>
<circle cx="434.8" cy="138.5" r="4" fill="#f97316" stroke="#0f172a" stroke-width="2"><title>Qwen3-0.6B-bf16: 67.640</title></circle>
<circle cx="458.3" cy="150.2" r="4" fill="#f97316" stroke="#0f172a" stroke-width="2"><title>Qwen3-0.6B-bf16: 63.423</title></circle>
<circle cx="481.8" cy="151.4" r="4" fill="#f97316" stroke="#0f172a" stroke-width="2"><title>Qwen3-0.6B-bf16: 62.990</title></circle>
<circle cx="505.4" cy="149.0" r="4" fill="#f97316" stroke="#0f172a" stroke-width="2"><title>Qwen3-0.6B-bf16: 63.834</title></circle>
<circle cx="528.9" cy="149.0" r="4" fill="#f97316" stroke="#0f172a" stroke-width="2"><title>Qwen3-0.6B-bf16: 63.854</title></circle>
<circle cx="552.4" cy="157.9" r="4" fill="#f97316" stroke="#0f172a" stroke-width="2"><title>Qwen3-0.6B-bf16: 60.641</title></circle>
<circle cx="575.9" cy="149.0" r="4" fill="#f97316" stroke="#0f172a" stroke-width="2"><title>Qwen3-0.6B-bf16: 63.860</title></circle>
<circle cx="599.4" cy="143.7" r="4" fill="#f97316" stroke="#0f172a" stroke-width="2"><title>Qwen3-0.6B-bf16: 65.748</title></circle>
<circle cx="623.0" cy="143.2" r="4" fill="#f97316" stroke="#0f172a" stroke-width="2"><title>Qwen3-0.6B-bf16: 65.949</title></circle>
<circle cx="646.5" cy="143.2" r="4" fill="#f97316" stroke="#0f172a" stroke-width="2"><title>Qwen3-0.6B-bf16: 65.950</title></circle>
<circle cx="670.0" cy="144.5" r="4" fill="#f97316" stroke="#0f172a" stroke-width="2"><title>Qwen3-0.6B-bf16: 65.486</title></circle>
<circle cx="702" cy="100" r="5" fill="#f97316"/>
<text x="716" y="104" font-family="Inter,Segoe UI,sans-serif" font-size="13" fill="#cbd5e1">Qwen3-0.6B-bf16</text>
</svg>
