<svg xmlns="http://www.w3.org/2000/svg" width="900" height="420" viewBox="0 0 900 420" role="img" aria-label="Qwen3-0.6B prompt throughput (tokens/sec)">
<rect width="900" height="420" fill="#0f172a" rx="12"/>
<text x="82" y="32" font-family="Inter,Segoe UI,sans-serif" font-size="22" font-weight="700" fill="#f8fafc">Qwen3-0.6B prompt throughput (tokens/sec)</text>
<line x1="82" y1="326.0" x2="670" y2="326.0" stroke="#1e293b" stroke-width="1"/>
<text x="72" y="330.0" text-anchor="end" font-family="Inter,Segoe UI,sans-serif" font-size="12" fill="#94a3b8">0.0</text>
<line x1="82" y1="271.6" x2="670" y2="271.6" stroke="#1e293b" stroke-width="1"/>
<text x="72" y="275.6" text-anchor="end" font-family="Inter,Segoe UI,sans-serif" font-size="12" fill="#94a3b8">536.0</text>
<line x1="82" y1="217.2" x2="670" y2="217.2" stroke="#1e293b" stroke-width="1"/>
<text x="72" y="221.2" text-anchor="end" font-family="Inter,Segoe UI,sans-serif" font-size="12" fill="#94a3b8">1072.1</text>
<line x1="82" y1="162.8" x2="670" y2="162.8" stroke="#1e293b" stroke-width="1"/>
<text x="72" y="166.8" text-anchor="end" font-family="Inter,Segoe UI,sans-serif" font-size="12" fill="#94a3b8">1608.1</text>
<line x1="82" y1="108.4" x2="670" y2="108.4" stroke="#1e293b" stroke-width="1"/>
<text x="72" y="112.4" text-anchor="end" font-family="Inter,Segoe UI,sans-serif" font-size="12" fill="#94a3b8">2144.1</text>
<line x1="82" y1="54.0" x2="670" y2="54.0" stroke="#1e293b" stroke-width="1"/>
<text x="72" y="58.0" text-anchor="end" font-family="Inter,Segoe UI,sans-serif" font-size="12" fill="#94a3b8">2680.1</text>
<line x1="82" y1="54" x2="82" y2="326" stroke="#475569"/>
<line x1="82" y1="326" x2="670" y2="326" stroke="#475569"/>
<text x="82.0" y="386" text-anchor="end" transform="rotate(-32 82.0 386)" font-family="Inter,Segoe UI,sans-serif" font-size="12" fill="#94a3b8">2026-05-18 08:58</text>
<text x="194.0" y="386" text-anchor="end" transform="rotate(-32 194.0 386)" font-family="Inter,Segoe UI,sans-serif" font-size="12" fill="#94a3b8">2026-05-20 05:17</text>
<text x="306.0" y="386" text-anchor="end" transform="rotate(-32 306.0 386)" font-family="Inter,Segoe UI,sans-serif" font-size="12" fill="#94a3b8">2026-05-20 17:44</text>
<text x="418.0" y="386" text-anchor="end" transform="rotate(-32 418.0 386)" font-family="Inter,Segoe UI,sans-serif" font-size="12" fill="#94a3b8">2026-05-24 20:21</text>
<text x="530.0" y="386" text-anchor="end" transform="rotate(-32 530.0 386)" font-family="Inter,Segoe UI,sans-serif" font-size="12" fill="#94a3b8">2026-05-27 07:30</text>
<text x="642.0" y="386" text-anchor="end" transform="rotate(-32 642.0 386)" font-family="Inter,Segoe UI,sans-serif" font-size="12" fill="#94a3b8">2026-05-31 17:12</text>
<text x="670.0" y="386" text-anchor="end" transform="rotate(-32 670.0 386)" font-family="Inter,Segoe UI,sans-serif" font-size="12" fill="#94a3b8">2026-06-04 06:13</text>
<polyline points="82.0,192.3 110.0,191.6 138.0,193.8 166.0,192.4 194.0,191.0 222.0,197.5 250.0,192.7 278.0,192.3 306.0,193.6 334.0,191.9 362.0,192.9 390.0,191.2 418.0,191.9 446.0,191.1 474.0,191.4 502.0,193.8 530.0,190.9 558.0,191.0 586.0,190.4 614.0,190.4 642.0,192.1 670.0,189.5" fill="none" stroke="#60a5fa" stroke-width="3" stroke-linejoin="round" stroke-linecap="round"/>
<circle cx="82.0" cy="192.3" r="4" fill="#60a5fa" stroke="#0f172a" stroke-width="2"><title>Qwen3-0.6B-8bit: 1317.353</title></circle>
<circle cx="110.0" cy="191.6" r="4" fill="#60a5fa" stroke="#0f172a" stroke-width="2"><title>Qwen3-0.6B-8bit: 1324.214</title></circle>
<circle cx="138.0" cy="193.8" r="4" fill="#60a5fa" stroke="#0f172a" stroke-width="2"><title>Qwen3-0.6B-8bit: 1302.198</title></circle>
<circle cx="166.0" cy="192.4" r="4" fill="#60a5fa" stroke="#0f172a" stroke-width="2"><title>Qwen3-0.6B-8bit: 1316.035</title></circle>
<circle cx="194.0" cy="191.0" r="4" fill="#60a5fa" stroke="#0f172a" stroke-width="2"><title>Qwen3-0.6B-8bit: 1330.239</title></circle>
<circle cx="222.0" cy="197.5" r="4" fill="#60a5fa" stroke="#0f172a" stroke-width="2"><title>Qwen3-0.6B-8bit: 1266.470</title></circle>
<circle cx="250.0" cy="192.7" r="4" fill="#60a5fa" stroke="#0f172a" stroke-width="2"><title>Qwen3-0.6B-8bit: 1313.222</title></circle>
<circle cx="278.0" cy="192.3" r="4" fill="#60a5fa" stroke="#0f172a" stroke-width="2"><title>Qwen3-0.6B-8bit: 1317.869</title></circle>
<circle cx="306.0" cy="193.6" r="4" fill="#60a5fa" stroke="#0f172a" stroke-width="2"><title>Qwen3-0.6B-8bit: 1304.978</title></circle>
<circle cx="334.0" cy="191.9" r="4" fill="#60a5fa" stroke="#0f172a" stroke-width="2"><title>Qwen3-0.6B-8bit: 1320.984</title></circle>
<circle cx="362.0" cy="192.9" r="4" fill="#60a5fa" stroke="#0f172a" stroke-width="2"><title>Qwen3-0.6B-8bit: 1311.879</title></circle>
<circle cx="390.0" cy="191.2" r="4" fill="#60a5fa" stroke="#0f172a" stroke-width="2"><title>Qwen3-0.6B-8bit: 1328.602</title></circle>
<circle cx="418.0" cy="191.9" r="4" fill="#60a5fa" stroke="#0f172a" stroke-width="2"><title>Qwen3-0.6B-8bit: 1320.912</title></circle>
<circle cx="446.0" cy="191.1" r="4" fill="#60a5fa" stroke="#0f172a" stroke-width="2"><title>Qwen3-0.6B-8bit: 1329.371</title></circle>
<circle cx="474.0" cy="191.4" r="4" fill="#60a5fa" stroke="#0f172a" stroke-width="2"><title>Qwen3-0.6B-8bit: 1326.742</title></circle>
<circle cx="502.0" cy="193.8" r="4" fill="#60a5fa" stroke="#0f172a" stroke-width="2"><title>Qwen3-0.6B-8bit: 1302.833</title></circle>
<circle cx="530.0" cy="190.9" r="4" fill="#60a5fa" stroke="#0f172a" stroke-width="2"><title>Qwen3-0.6B-8bit: 1331.303</title></circle>
<circle cx="558.0" cy="191.0" r="4" fill="#60a5fa" stroke="#0f172a" stroke-width="2"><title>Qwen3-0.6B-8bit: 1329.738</title></circle>
<circle cx="586.0" cy="190.4" r="4" fill="#60a5fa" stroke="#0f172a" stroke-width="2"><title>Qwen3-0.6B-8bit: 1336.072</title></circle>
<circle cx="614.0" cy="190.4" r="4" fill="#60a5fa" stroke="#0f172a" stroke-width="2"><title>Qwen3-0.6B-8bit: 1336.223</title></circle>
<circle cx="642.0" cy="192.1" r="4" fill="#60a5fa" stroke="#0f172a" stroke-width="2"><title>Qwen3-0.6B-8bit: 1319.221</title></circle>
<circle cx="670.0" cy="189.5" r="4" fill="#60a5fa" stroke="#0f172a" stroke-width="2"><title>Qwen3-0.6B-8bit: 1344.868</title></circle>
<circle cx="702" cy="76" r="5" fill="#60a5fa"/>
<text x="716" y="80" font-family="Inter,Segoe UI,sans-serif" font-size="13" fill="#cbd5e1">Qwen3-0.6B-8bit</text>
<polyline points="82.0,93.0 110.0,92.4 138.0,94.4 166.0,96.3 194.0,88.8 222.0,92.6 250.0,95.6 278.0,93.7 306.0,96.9 334.0,93.9 362.0,96.2 390.0,91.0 418.0,93.3 446.0,89.0 474.0,87.7 502.0,89.0 530.0,88.2 558.0,89.3 586.0,87.5 614.0,87.9 642.0,83.1 670.0,89.2" fill="none" stroke="#f97316" stroke-width="3" stroke-linejoin="round" stroke-linecap="round"/>
<circle cx="82.0" cy="93.0" r="4" fill="#f97316" stroke="#0f172a" stroke-width="2"><title>Qwen3-0.6B-bf16: 2295.900</title></circle>
<circle cx="110.0" cy="92.4" r="4" fill="#f97316" stroke="#0f172a" stroke-width="2"><title>Qwen3-0.6B-bf16: 2302.213</title></circle>
<circle cx="138.0" cy="94.4" r="4" fill="#f97316" stroke="#0f172a" stroke-width="2"><title>Qwen3-0.6B-bf16: 2282.178</title></circle>
<circle cx="166.0" cy="96.3" r="4" fill="#f97316" stroke="#0f172a" stroke-width="2"><title>Qwen3-0.6B-bf16: 2263.796</title></circle>
<circle cx="194.0" cy="88.8" r="4" fill="#f97316" stroke="#0f172a" stroke-width="2"><title>Qwen3-0.6B-bf16: 2337.462</title></circle>
<circle cx="222.0" cy="92.6" r="4" fill="#f97316" stroke="#0f172a" stroke-width="2"><title>Qwen3-0.6B-bf16: 2300.015</title></circle>
<circle cx="250.0" cy="95.6" r="4" fill="#f97316" stroke="#0f172a" stroke-width="2"><title>Qwen3-0.6B-bf16: 2270.406</title></circle>
<circle cx="278.0" cy="93.7" r="4" fill="#f97316" stroke="#0f172a" stroke-width="2"><title>Qwen3-0.6B-bf16: 2289.089</title></circle>
<circle cx="306.0" cy="96.9" r="4" fill="#f97316" stroke="#0f172a" stroke-width="2"><title>Qwen3-0.6B-bf16: 2257.811</title></circle>
<circle cx="334.0" cy="93.9" r="4" fill="#f97316" stroke="#0f172a" stroke-width="2"><title>Qwen3-0.6B-bf16: 2286.532</title></circle>
<circle cx="362.0" cy="96.2" r="4" fill="#f97316" stroke="#0f172a" stroke-width="2"><title>Qwen3-0.6B-bf16: 2264.269</title></circle>
<circle cx="390.0" cy="91.0" r="4" fill="#f97316" stroke="#0f172a" stroke-width="2"><title>Qwen3-0.6B-bf16: 2315.715</title></circle>
<circle cx="418.0" cy="93.3" r="4" fill="#f97316" stroke="#0f172a" stroke-width="2"><title>Qwen3-0.6B-bf16: 2293.349</title></circle>
<circle cx="446.0" cy="89.0" r="4" fill="#f97316" stroke="#0f172a" stroke-width="2"><title>Qwen3-0.6B-bf16: 2335.527</title></circle>
<circle cx="474.0" cy="87.7" r="4" fill="#f97316" stroke="#0f172a" stroke-width="2"><title>Qwen3-0.6B-bf16: 2348.431</title></circle>
<circle cx="502.0" cy="89.0" r="4" fill="#f97316" stroke="#0f172a" stroke-width="2"><title>Qwen3-0.6B-bf16: 2334.922</title></circle>
<circle cx="530.0" cy="88.2" r="4" fill="#f97316" stroke="#0f172a" stroke-width="2"><title>Qwen3-0.6B-bf16: 2343.234</title></circle>
<circle cx="558.0" cy="89.3" r="4" fill="#f97316" stroke="#0f172a" stroke-width="2"><title>Qwen3-0.6B-bf16: 2332.092</title></circle>
<circle cx="586.0" cy="87.5" r="4" fill="#f97316" stroke="#0f172a" stroke-width="2"><title>Qwen3-0.6B-bf16: 2349.782</title></circle>
<circle cx="614.0" cy="87.9" r="4" fill="#f97316" stroke="#0f172a" stroke-width="2"><title>Qwen3-0.6B-bf16: 2346.036</title></circle>
<circle cx="642.0" cy="83.1" r="4" fill="#f97316" stroke="#0f172a" stroke-width="2"><title>Qwen3-0.6B-bf16: 2392.984</title></circle>
<circle cx="670.0" cy="89.2" r="4" fill="#f97316" stroke="#0f172a" stroke-width="2"><title>Qwen3-0.6B-bf16: 2333.071</title></circle>
<circle cx="702" cy="100" r="5" fill="#f97316"/>
<text x="716" y="104" font-family="Inter,Segoe UI,sans-serif" font-size="13" fill="#cbd5e1">Qwen3-0.6B-bf16</text>
</svg>
