<svg xmlns="http://www.w3.org/2000/svg" width="900" height="420" viewBox="0 0 900 420" role="img" aria-label="Qwen3-0.6B prompt throughput (tokens/sec)">
<rect width="900" height="420" fill="#0f172a" rx="12"/>
<text x="82" y="32" font-family="Inter,Segoe UI,sans-serif" font-size="22" font-weight="700" fill="#f8fafc">Qwen3-0.6B prompt throughput (tokens/sec)</text>
<line x1="82" y1="326.0" x2="670" y2="326.0" stroke="#1e293b" stroke-width="1"/>
<text x="72" y="330.0" text-anchor="end" font-family="Inter,Segoe UI,sans-serif" font-size="12" fill="#94a3b8">0.0</text>
<line x1="82" y1="271.6" x2="670" y2="271.6" stroke="#1e293b" stroke-width="1"/>
<text x="72" y="275.6" text-anchor="end" font-family="Inter,Segoe UI,sans-serif" font-size="12" fill="#94a3b8">641.2</text>
<line x1="82" y1="217.2" x2="670" y2="217.2" stroke="#1e293b" stroke-width="1"/>
<text x="72" y="221.2" text-anchor="end" font-family="Inter,Segoe UI,sans-serif" font-size="12" fill="#94a3b8">1282.4</text>
<line x1="82" y1="162.8" x2="670" y2="162.8" stroke="#1e293b" stroke-width="1"/>
<text x="72" y="166.8" text-anchor="end" font-family="Inter,Segoe UI,sans-serif" font-size="12" fill="#94a3b8">1923.5</text>
<line x1="82" y1="108.4" x2="670" y2="108.4" stroke="#1e293b" stroke-width="1"/>
<text x="72" y="112.4" text-anchor="end" font-family="Inter,Segoe UI,sans-serif" font-size="12" fill="#94a3b8">2564.7</text>
<line x1="82" y1="54.0" x2="670" y2="54.0" stroke="#1e293b" stroke-width="1"/>
<text x="72" y="58.0" text-anchor="end" font-family="Inter,Segoe UI,sans-serif" font-size="12" fill="#94a3b8">3205.9</text>
<line x1="82" y1="54" x2="82" y2="326" stroke="#475569"/>
<line x1="82" y1="326" x2="670" y2="326" stroke="#475569"/>
<text x="82.0" y="386" text-anchor="end" transform="rotate(-32 82.0 386)" font-family="Inter,Segoe UI,sans-serif" font-size="12" fill="#94a3b8">2026-05-18 08:58</text>
<text x="183.4" y="386" text-anchor="end" transform="rotate(-32 183.4 386)" font-family="Inter,Segoe UI,sans-serif" font-size="12" fill="#94a3b8">2026-05-20 09:39</text>
<text x="284.8" y="386" text-anchor="end" transform="rotate(-32 284.8 386)" font-family="Inter,Segoe UI,sans-serif" font-size="12" fill="#94a3b8">2026-05-24 19:50</text>
<text x="386.1" y="386" text-anchor="end" transform="rotate(-32 386.1 386)" font-family="Inter,Segoe UI,sans-serif" font-size="12" fill="#94a3b8">2026-05-25 16:38</text>
<text x="487.5" y="386" text-anchor="end" transform="rotate(-32 487.5 386)" font-family="Inter,Segoe UI,sans-serif" font-size="12" fill="#94a3b8">2026-05-31 17:12</text>
<text x="588.9" y="386" text-anchor="end" transform="rotate(-32 588.9 386)" font-family="Inter,Segoe UI,sans-serif" font-size="12" fill="#94a3b8">2026-06-19 15:37</text>
<text x="670.0" y="386" text-anchor="end" transform="rotate(-32 670.0 386)" font-family="Inter,Segoe UI,sans-serif" font-size="12" fill="#94a3b8">2026-07-07 07:47</text>
<polyline points="82.0,214.2 102.3,213.6 122.6,215.5 142.8,214.3 163.1,213.1 183.4,218.5 203.7,214.6 223.9,214.2 244.2,215.3 264.5,213.9 284.8,214.7 305.0,213.3 325.3,213.9 345.6,213.2 365.9,213.4 386.1,215.5 406.4,213.0 426.7,213.2 447.0,212.6 467.2,212.6 487.5,214.1 507.8,211.9 528.1,210.6 548.3,200.6 568.6,201.7 588.9,202.3 609.2,201.2 629.4,199.3 649.7,199.4 670.0,199.3" fill="none" stroke="#60a5fa" stroke-width="3" stroke-linejoin="round" stroke-linecap="round"/>
<circle cx="82.0" cy="214.2" r="4" fill="#60a5fa" stroke="#0f172a" stroke-width="2"><title>Qwen3-0.6B-8bit: 1317.353</title></circle>
<circle cx="102.3" cy="213.6" r="4" fill="#60a5fa" stroke="#0f172a" stroke-width="2"><title>Qwen3-0.6B-8bit: 1324.214</title></circle>
<circle cx="122.6" cy="215.5" r="4" fill="#60a5fa" stroke="#0f172a" stroke-width="2"><title>Qwen3-0.6B-8bit: 1302.198</title></circle>
<circle cx="142.8" cy="214.3" r="4" fill="#60a5fa" stroke="#0f172a" stroke-width="2"><title>Qwen3-0.6B-8bit: 1316.035</title></circle>
<circle cx="163.1" cy="213.1" r="4" fill="#60a5fa" stroke="#0f172a" stroke-width="2"><title>Qwen3-0.6B-8bit: 1330.239</title></circle>
<circle cx="183.4" cy="218.5" r="4" fill="#60a5fa" stroke="#0f172a" stroke-width="2"><title>Qwen3-0.6B-8bit: 1266.470</title></circle>
<circle cx="203.7" cy="214.6" r="4" fill="#60a5fa" stroke="#0f172a" stroke-width="2"><title>Qwen3-0.6B-8bit: 1313.222</title></circle>
<circle cx="223.9" cy="214.2" r="4" fill="#60a5fa" stroke="#0f172a" stroke-width="2"><title>Qwen3-0.6B-8bit: 1317.869</title></circle>
<circle cx="244.2" cy="215.3" r="4" fill="#60a5fa" stroke="#0f172a" stroke-width="2"><title>Qwen3-0.6B-8bit: 1304.978</title></circle>
<circle cx="264.5" cy="213.9" r="4" fill="#60a5fa" stroke="#0f172a" stroke-width="2"><title>Qwen3-0.6B-8bit: 1320.984</title></circle>
<circle cx="284.8" cy="214.7" r="4" fill="#60a5fa" stroke="#0f172a" stroke-width="2"><title>Qwen3-0.6B-8bit: 1311.879</title></circle>
<circle cx="305.0" cy="213.3" r="4" fill="#60a5fa" stroke="#0f172a" stroke-width="2"><title>Qwen3-0.6B-8bit: 1328.602</title></circle>
<circle cx="325.3" cy="213.9" r="4" fill="#60a5fa" stroke="#0f172a" stroke-width="2"><title>Qwen3-0.6B-8bit: 1320.912</title></circle>
<circle cx="345.6" cy="213.2" r="4" fill="#60a5fa" stroke="#0f172a" stroke-width="2"><title>Qwen3-0.6B-8bit: 1329.371</title></circle>
<circle cx="365.9" cy="213.4" r="4" fill="#60a5fa" stroke="#0f172a" stroke-width="2"><title>Qwen3-0.6B-8bit: 1326.742</title></circle>
<circle cx="386.1" cy="215.5" r="4" fill="#60a5fa" stroke="#0f172a" stroke-width="2"><title>Qwen3-0.6B-8bit: 1302.833</title></circle>
<circle cx="406.4" cy="213.0" r="4" fill="#60a5fa" stroke="#0f172a" stroke-width="2"><title>Qwen3-0.6B-8bit: 1331.303</title></circle>
<circle cx="426.7" cy="213.2" r="4" fill="#60a5fa" stroke="#0f172a" stroke-width="2"><title>Qwen3-0.6B-8bit: 1329.738</title></circle>
<circle cx="447.0" cy="212.6" r="4" fill="#60a5fa" stroke="#0f172a" stroke-width="2"><title>Qwen3-0.6B-8bit: 1336.072</title></circle>
<circle cx="467.2" cy="212.6" r="4" fill="#60a5fa" stroke="#0f172a" stroke-width="2"><title>Qwen3-0.6B-8bit: 1336.223</title></circle>
<circle cx="487.5" cy="214.1" r="4" fill="#60a5fa" stroke="#0f172a" stroke-width="2"><title>Qwen3-0.6B-8bit: 1319.221</title></circle>
<circle cx="507.8" cy="211.9" r="4" fill="#60a5fa" stroke="#0f172a" stroke-width="2"><title>Qwen3-0.6B-8bit: 1344.868</title></circle>
<circle cx="528.1" cy="210.6" r="4" fill="#60a5fa" stroke="#0f172a" stroke-width="2"><title>Qwen3-0.6B-8bit: 1360.581</title></circle>
<circle cx="548.3" cy="200.6" r="4" fill="#60a5fa" stroke="#0f172a" stroke-width="2"><title>Qwen3-0.6B-8bit: 1477.926</title></circle>
<circle cx="568.6" cy="201.7" r="4" fill="#60a5fa" stroke="#0f172a" stroke-width="2"><title>Qwen3-0.6B-8bit: 1464.916</title></circle>
<circle cx="588.9" cy="202.3" r="4" fill="#60a5fa" stroke="#0f172a" stroke-width="2"><title>Qwen3-0.6B-8bit: 1458.232</title></circle>
<circle cx="609.2" cy="201.2" r="4" fill="#60a5fa" stroke="#0f172a" stroke-width="2"><title>Qwen3-0.6B-8bit: 1470.973</title></circle>
<circle cx="629.4" cy="199.3" r="4" fill="#60a5fa" stroke="#0f172a" stroke-width="2"><title>Qwen3-0.6B-8bit: 1493.533</title></circle>
<circle cx="649.7" cy="199.4" r="4" fill="#60a5fa" stroke="#0f172a" stroke-width="2"><title>Qwen3-0.6B-8bit: 1492.104</title></circle>
<circle cx="670.0" cy="199.3" r="4" fill="#60a5fa" stroke="#0f172a" stroke-width="2"><title>Qwen3-0.6B-8bit: 1493.524</title></circle>
<circle cx="702" cy="76" r="5" fill="#60a5fa"/>
<text x="716" y="80" font-family="Inter,Segoe UI,sans-serif" font-size="13" fill="#cbd5e1">Qwen3-0.6B-8bit</text>
<polyline points="82.0,131.2 102.3,130.7 122.6,132.4 142.8,133.9 163.1,127.7 183.4,130.9 203.7,133.4 223.9,131.8 244.2,134.4 264.5,132.0 284.8,133.9 305.0,129.5 325.3,131.4 345.6,127.8 365.9,126.8 386.1,127.9 406.4,127.2 426.7,128.1 447.0,126.6 467.2,127.0 487.5,123.0 507.8,128.1 528.1,121.5 548.3,83.3 568.6,83.3 588.9,83.1 609.2,86.9 629.4,84.9 649.7,87.4 670.0,85.6" fill="none" stroke="#f97316" stroke-width="3" stroke-linejoin="round" stroke-linecap="round"/>
<circle cx="82.0" cy="131.2" r="4" fill="#f97316" stroke="#0f172a" stroke-width="2"><title>Qwen3-0.6B-bf16: 2295.900</title></circle>
<circle cx="102.3" cy="130.7" r="4" fill="#f97316" stroke="#0f172a" stroke-width="2"><title>Qwen3-0.6B-bf16: 2302.213</title></circle>
<circle cx="122.6" cy="132.4" r="4" fill="#f97316" stroke="#0f172a" stroke-width="2"><title>Qwen3-0.6B-bf16: 2282.178</title></circle>
<circle cx="142.8" cy="133.9" r="4" fill="#f97316" stroke="#0f172a" stroke-width="2"><title>Qwen3-0.6B-bf16: 2263.796</title></circle>
<circle cx="163.1" cy="127.7" r="4" fill="#f97316" stroke="#0f172a" stroke-width="2"><title>Qwen3-0.6B-bf16: 2337.462</title></circle>
<circle cx="183.4" cy="130.9" r="4" fill="#f97316" stroke="#0f172a" stroke-width="2"><title>Qwen3-0.6B-bf16: 2300.015</title></circle>
<circle cx="203.7" cy="133.4" r="4" fill="#f97316" stroke="#0f172a" stroke-width="2"><title>Qwen3-0.6B-bf16: 2270.406</title></circle>
<circle cx="223.9" cy="131.8" r="4" fill="#f97316" stroke="#0f172a" stroke-width="2"><title>Qwen3-0.6B-bf16: 2289.089</title></circle>
<circle cx="244.2" cy="134.4" r="4" fill="#f97316" stroke="#0f172a" stroke-width="2"><title>Qwen3-0.6B-bf16: 2257.811</title></circle>
<circle cx="264.5" cy="132.0" r="4" fill="#f97316" stroke="#0f172a" stroke-width="2"><title>Qwen3-0.6B-bf16: 2286.532</title></circle>
<circle cx="284.8" cy="133.9" r="4" fill="#f97316" stroke="#0f172a" stroke-width="2"><title>Qwen3-0.6B-bf16: 2264.269</title></circle>
<circle cx="305.0" cy="129.5" r="4" fill="#f97316" stroke="#0f172a" stroke-width="2"><title>Qwen3-0.6B-bf16: 2315.715</title></circle>
<circle cx="325.3" cy="131.4" r="4" fill="#f97316" stroke="#0f172a" stroke-width="2"><title>Qwen3-0.6B-bf16: 2293.349</title></circle>
<circle cx="345.6" cy="127.8" r="4" fill="#f97316" stroke="#0f172a" stroke-width="2"><title>Qwen3-0.6B-bf16: 2335.527</title></circle>
<circle cx="365.9" cy="126.8" r="4" fill="#f97316" stroke="#0f172a" stroke-width="2"><title>Qwen3-0.6B-bf16: 2348.431</title></circle>
<circle cx="386.1" cy="127.9" r="4" fill="#f97316" stroke="#0f172a" stroke-width="2"><title>Qwen3-0.6B-bf16: 2334.922</title></circle>
<circle cx="406.4" cy="127.2" r="4" fill="#f97316" stroke="#0f172a" stroke-width="2"><title>Qwen3-0.6B-bf16: 2343.234</title></circle>
<circle cx="426.7" cy="128.1" r="4" fill="#f97316" stroke="#0f172a" stroke-width="2"><title>Qwen3-0.6B-bf16: 2332.092</title></circle>
<circle cx="447.0" cy="126.6" r="4" fill="#f97316" stroke="#0f172a" stroke-width="2"><title>Qwen3-0.6B-bf16: 2349.782</title></circle>
<circle cx="467.2" cy="127.0" r="4" fill="#f97316" stroke="#0f172a" stroke-width="2"><title>Qwen3-0.6B-bf16: 2346.036</title></circle>
<circle cx="487.5" cy="123.0" r="4" fill="#f97316" stroke="#0f172a" stroke-width="2"><title>Qwen3-0.6B-bf16: 2392.984</title></circle>
<circle cx="507.8" cy="128.1" r="4" fill="#f97316" stroke="#0f172a" stroke-width="2"><title>Qwen3-0.6B-bf16: 2333.071</title></circle>
<circle cx="528.1" cy="121.5" r="4" fill="#f97316" stroke="#0f172a" stroke-width="2"><title>Qwen3-0.6B-bf16: 2410.127</title></circle>
<circle cx="548.3" cy="83.3" r="4" fill="#f97316" stroke="#0f172a" stroke-width="2"><title>Qwen3-0.6B-bf16: 2860.579</title></circle>
<circle cx="568.6" cy="83.3" r="4" fill="#f97316" stroke="#0f172a" stroke-width="2"><title>Qwen3-0.6B-bf16: 2860.080</title></circle>
<circle cx="588.9" cy="83.1" r="4" fill="#f97316" stroke="#0f172a" stroke-width="2"><title>Qwen3-0.6B-bf16: 2862.407</title></circle>
<circle cx="609.2" cy="86.9" r="4" fill="#f97316" stroke="#0f172a" stroke-width="2"><title>Qwen3-0.6B-bf16: 2818.647</title></circle>
<circle cx="629.4" cy="84.9" r="4" fill="#f97316" stroke="#0f172a" stroke-width="2"><title>Qwen3-0.6B-bf16: 2841.434</title></circle>
<circle cx="649.7" cy="87.4" r="4" fill="#f97316" stroke="#0f172a" stroke-width="2"><title>Qwen3-0.6B-bf16: 2812.254</title></circle>
<circle cx="670.0" cy="85.6" r="4" fill="#f97316" stroke="#0f172a" stroke-width="2"><title>Qwen3-0.6B-bf16: 2833.533</title></circle>
<circle cx="702" cy="100" r="5" fill="#f97316"/>
<text x="716" y="104" font-family="Inter,Segoe UI,sans-serif" font-size="13" fill="#cbd5e1">Qwen3-0.6B-bf16</text>
</svg>
