<svg xmlns="http://www.w3.org/2000/svg" width="900" height="420" viewBox="0 0 900 420" role="img" aria-label="Qwen3.6-35B-A3B prompt throughput (tokens/sec)">
<rect width="900" height="420" fill="#0f172a" rx="12"/>
<text x="82" y="32" font-family="Inter,Segoe UI,sans-serif" font-size="22" font-weight="700" fill="#f8fafc">Qwen3.6-35B-A3B prompt throughput (tokens/sec)</text>
<line x1="82" y1="326.0" x2="670" y2="326.0" stroke="#1e293b" stroke-width="1"/>
<text x="72" y="330.0" text-anchor="end" font-family="Inter,Segoe UI,sans-serif" font-size="12" fill="#94a3b8">0.0</text>
<line x1="82" y1="271.6" x2="670" y2="271.6" stroke="#1e293b" stroke-width="1"/>
<text x="72" y="275.6" text-anchor="end" font-family="Inter,Segoe UI,sans-serif" font-size="12" fill="#94a3b8">28.9</text>
<line x1="82" y1="217.2" x2="670" y2="217.2" stroke="#1e293b" stroke-width="1"/>
<text x="72" y="221.2" text-anchor="end" font-family="Inter,Segoe UI,sans-serif" font-size="12" fill="#94a3b8">57.8</text>
<line x1="82" y1="162.8" x2="670" y2="162.8" stroke="#1e293b" stroke-width="1"/>
<text x="72" y="166.8" text-anchor="end" font-family="Inter,Segoe UI,sans-serif" font-size="12" fill="#94a3b8">86.7</text>
<line x1="82" y1="108.4" x2="670" y2="108.4" stroke="#1e293b" stroke-width="1"/>
<text x="72" y="112.4" text-anchor="end" font-family="Inter,Segoe UI,sans-serif" font-size="12" fill="#94a3b8">115.6</text>
<line x1="82" y1="54.0" x2="670" y2="54.0" stroke="#1e293b" stroke-width="1"/>
<text x="72" y="58.0" text-anchor="end" font-family="Inter,Segoe UI,sans-serif" font-size="12" fill="#94a3b8">144.5</text>
<line x1="82" y1="54" x2="82" y2="326" stroke="#475569"/>
<line x1="82" y1="326" x2="670" y2="326" stroke="#475569"/>
<text x="82.0" y="386" text-anchor="end" transform="rotate(-32 82.0 386)" font-family="Inter,Segoe UI,sans-serif" font-size="12" fill="#94a3b8">2026-05-28 17:33</text>
<text x="212.7" y="386" text-anchor="end" transform="rotate(-32 212.7 386)" font-family="Inter,Segoe UI,sans-serif" font-size="12" fill="#94a3b8">2026-06-04 06:13</text>
<text x="343.3" y="386" text-anchor="end" transform="rotate(-32 343.3 386)" font-family="Inter,Segoe UI,sans-serif" font-size="12" fill="#94a3b8">2026-06-13 22:02</text>
<text x="474.0" y="386" text-anchor="end" transform="rotate(-32 474.0 386)" font-family="Inter,Segoe UI,sans-serif" font-size="12" fill="#94a3b8">2026-06-19 15:37</text>
<text x="604.7" y="386" text-anchor="end" transform="rotate(-32 604.7 386)" font-family="Inter,Segoe UI,sans-serif" font-size="12" fill="#94a3b8">2026-07-03 13:26</text>
<text x="670.0" y="386" text-anchor="end" transform="rotate(-32 670.0 386)" font-family="Inter,Segoe UI,sans-serif" font-size="12" fill="#94a3b8">2026-07-04 21:20</text>
<polyline points="82.0,219.8 147.3,223.7 212.7,218.5 278.0,98.2 343.3,91.4 408.7,100.1 474.0,98.8 539.3,86.8 604.7,83.1 670.0,87.9" fill="none" stroke="#60a5fa" stroke-width="3" stroke-linejoin="round" stroke-linecap="round"/>
<circle cx="82.0" cy="219.8" r="4" fill="#60a5fa" stroke="#0f172a" stroke-width="2"><title>Qwen3.6-35B-A3B-8bit: 56.402</title></circle>
<circle cx="147.3" cy="223.7" r="4" fill="#60a5fa" stroke="#0f172a" stroke-width="2"><title>Qwen3.6-35B-A3B-8bit: 54.350</title></circle>
<circle cx="212.7" cy="218.5" r="4" fill="#60a5fa" stroke="#0f172a" stroke-width="2"><title>Qwen3.6-35B-A3B-8bit: 57.111</title></circle>
<circle cx="278.0" cy="98.2" r="4" fill="#60a5fa" stroke="#0f172a" stroke-width="2"><title>Qwen3.6-35B-A3B-8bit: 121.011</title></circle>
<circle cx="343.3" cy="91.4" r="4" fill="#60a5fa" stroke="#0f172a" stroke-width="2"><title>Qwen3.6-35B-A3B-8bit: 124.666</title></circle>
<circle cx="408.7" cy="100.1" r="4" fill="#60a5fa" stroke="#0f172a" stroke-width="2"><title>Qwen3.6-35B-A3B-8bit: 120.009</title></circle>
<circle cx="474.0" cy="98.8" r="4" fill="#60a5fa" stroke="#0f172a" stroke-width="2"><title>Qwen3.6-35B-A3B-8bit: 120.704</title></circle>
<circle cx="539.3" cy="86.8" r="4" fill="#60a5fa" stroke="#0f172a" stroke-width="2"><title>Qwen3.6-35B-A3B-8bit: 127.088</title></circle>
<circle cx="604.7" cy="83.1" r="4" fill="#60a5fa" stroke="#0f172a" stroke-width="2"><title>Qwen3.6-35B-A3B-8bit: 129.037</title></circle>
<circle cx="670.0" cy="87.9" r="4" fill="#60a5fa" stroke="#0f172a" stroke-width="2"><title>Qwen3.6-35B-A3B-8bit: 126.534</title></circle>
<circle cx="702" cy="76" r="5" fill="#60a5fa"/>
<text x="716" y="80" font-family="Inter,Segoe UI,sans-serif" font-size="13" fill="#cbd5e1">Qwen3.6-35B-A3B-8bit</text>
</svg>
